<svg width="32" height="32" viewBox="0 0 32 32" fill="none" xmlns="http://www.w3.org/2000/svg">
<path d="M19.5385 26.3333V13H11.0769V15.6667H12.6154V26.3333H11V29H21V26.3333H19.5385Z" fill="#94B1DC"/>
<path d="M16 11C18.2056 11 20 9.2056 20 7C20 4.7944 18.2056 3 16 3C13.7944 3 12 4.7944 12 7C12 9.2056 13.7944 11 16 11Z" fill="#94B1DC"/>
<path d="M16 11C18.2056 11 20 9.2056 20 7C20 4.7944 18.2056 3 16 3V11Z" fill="#94B1DC"/>
<path d="M19.5156 26.3333V13H16V29H21V26.3333H19.5156Z" fill="#94B1DC"/>
</svg>
