<svg width="32" height="32" viewBox="0 0 32 32" fill="none" xmlns="http://www.w3.org/2000/svg">
<path d="M22.6667 22.6667H18.6667V20H22.6667C24.8758 20 26.6667 18.2091 26.6667 16C26.6667 13.7909 24.8758 12 22.6667 12H18.6667V9.33333H22.6667C26.3486 9.33333 29.3334 12.3181 29.3334 16C29.3334 19.6819 26.3486 22.6667 22.6667 22.6667ZM13.3334 22.6667H9.33335C5.65146 22.6667 2.66669 19.6819 2.66669 16C2.66669 12.3181 5.65146 9.33333 9.33335 9.33333H13.3334V12H9.33335C7.12421 12 5.33335 13.7909 5.33335 16C5.33335 18.2091 7.12421 20 9.33335 20H13.3334V22.6667ZM22.6667 17.3333H9.33335V14.6667H22.6667V17.3333Z" fill="#94B1DC"/>
</svg>
