<svg width="32" height="32" viewBox="0 0 32 32" fill="none" xmlns="http://www.w3.org/2000/svg">
<path d="M4.89504 3.7764C4.89417 3.7764 4.89321 3.7764 4.89234 3.7764C4.58969 3.7764 4.30503 3.89438 4.09008 4.10879C3.87276 4.32557 3.75305 4.61422 3.75305 4.92151V22.0922C3.75305 22.7219 4.26732 23.2354 4.89956 23.237C7.56495 23.2433 12.0305 23.7989 15.1112 27.0227V9.05307C15.1112 8.83963 15.0566 8.63912 14.9537 8.47319C12.4253 4.40132 7.56646 3.78265 4.89504 3.7764Z" fill="#0066FF"/>
<path d="M28.2471 22.0922V4.92138C28.2471 4.6141 28.1274 4.32545 27.9101 4.10867C27.6951 3.89426 27.4102 3.77628 27.1079 3.77628C27.1069 3.77628 27.106 3.77628 27.1051 3.77628C24.4338 3.78263 19.575 4.4013 17.0464 8.47318C16.9435 8.63911 16.8891 8.83962 16.8891 9.05306V27.0226C19.9697 23.7988 24.4353 23.2432 27.1007 23.2369C27.7328 23.2352 28.2471 22.7217 28.2471 22.0922Z" fill="#0066FF"/>
<path d="M30.8551 7.73624H30.0248V22.0922C30.0248 23.6999 28.715 25.0108 27.1049 25.0148C24.8441 25.0202 21.1163 25.4623 18.4763 27.961C23.0423 26.843 27.8556 27.5697 30.5988 28.1949C30.9413 28.2729 31.2953 28.1923 31.5697 27.9736C31.8431 27.7554 32 27.4292 32 27.0792V8.88113C32.0001 8.24985 31.4864 7.73624 30.8551 7.73624Z" fill="#0066FF"/>
<path d="M1.97517 22.0922V7.73624H1.14489C0.513726 7.73624 0 8.24985 0 8.88113V27.0789C0 27.429 0.156876 27.7551 0.430331 27.9732C0.704541 28.1919 1.05816 28.2728 1.40122 28.1945C4.14439 27.5693 8.95788 26.8427 13.5237 27.9606C10.8837 25.462 7.15596 25.0201 4.89515 25.0147C3.28513 25.0108 1.97517 23.6999 1.97517 22.0922Z" fill="#0066FF"/>
</svg>
