<svg width="47" height="47" viewBox="0 0 47 47" fill="none" xmlns="http://www.w3.org/2000/svg">
<path d="M5.84012 19.037C6.37787 19.5747 7.24976 19.5747 7.78741 19.0369L10.9855 15.8384L19.3691 24.222V20.3274L7.78741 8.74559C7.24976 8.20785 6.37787 8.20785 5.84012 8.74559C5.30238 9.28334 5.30238 10.1551 5.84012 10.6929L9.03833 13.8911L5.84003 17.0897C5.30229 17.6275 5.30238 18.4994 5.84012 19.037Z" fill="#0066FF"/>
<path d="M39.2124 19.0369C39.7501 19.5746 40.622 19.5747 41.1597 19.037C41.6974 18.4993 41.6975 17.6275 41.1598 17.0897L37.9616 13.891L41.1597 10.6928C41.6974 10.1551 41.6974 9.28331 41.1597 8.74556C40.622 8.20791 39.7502 8.20781 39.2124 8.74556L27.6309 20.3273V24.222L36.0143 15.8384L39.2124 19.0369Z" fill="#0066FF"/>
<path d="M10.0117 31.5512C10.5494 32.089 11.4212 32.0889 11.959 31.5512L15.1562 28.3535L19.3692 32.5661V28.6716L11.9589 21.2616C11.4211 20.724 10.5493 20.724 10.0116 21.2616C9.47392 21.7994 9.47392 22.6712 10.0116 23.2089L13.2089 26.4061L10.0115 29.6039C9.47392 30.1417 9.47392 31.0135 10.0117 31.5512Z" fill="#0066FF"/>
<path d="M35.041 31.5511C35.5786 32.0889 36.4505 32.089 36.9883 31.5512C37.526 31.0135 37.5261 30.1417 36.9884 29.6039L33.791 26.4062L36.9883 23.209C37.526 22.6712 37.526 21.7995 36.9883 21.2617C36.4506 20.724 35.5787 20.724 35.041 21.2617L27.6309 28.6715V32.5661L31.8436 28.3535L35.041 31.5511Z" fill="#0066FF"/>
<path d="M19.3692 15.8798V11.9853L11.9589 4.57524C11.4211 4.03759 10.5493 4.0375 10.0116 4.57524C9.47392 5.11299 9.47392 5.98478 10.0116 6.52253L19.3692 15.8798Z" fill="#0066FF"/>
<path d="M36.9884 4.57536C36.4506 4.03771 35.5788 4.03762 35.0411 4.57536L27.6309 11.9853V15.8799L36.9884 6.52265C37.526 5.985 37.526 5.11311 36.9884 4.57536Z" fill="#0066FF"/>
<path d="M19.3692 7.53609V3.64161L16.1305 0.40329C15.5927 -0.134364 14.7209 -0.134364 14.1832 0.403382C13.6455 0.941128 13.6455 1.81292 14.1833 2.35067L19.3692 7.53609Z" fill="#0066FF"/>
<path d="M32.8168 0.403355C32.2793 -0.134391 31.4074 -0.134482 30.8695 0.403264L27.6309 3.64158V7.53597L32.8167 2.35073C33.3546 1.81299 33.3546 0.941102 32.8168 0.403355Z" fill="#0066FF"/>
<path d="M24.877 1.37695C24.877 0.616508 24.2604 0 23.5 0C22.7396 0 22.123 0.616508 22.123 1.37695V41.4922H24.877V1.37695Z" fill="#0066FF"/>
</svg>
