<svg width="32" height="32" viewBox="0 0 32 32" fill="none" xmlns="http://www.w3.org/2000/svg">
<path d="M8.40118 30.0591C6.81211 30.0591 5.66586 29.0804 4.4388 27.9415C4.08723 27.6147 4.03961 27.0754 4.32892 26.6909L5.26274 25.4494C5.72599 24.8452 6.36686 24.3801 7.11211 24.0981C6.70917 23.6953 6.33461 23.2429 5.98786 22.734L5.58686 23.0141C4.59811 23.7136 3.35848 23.7978 2.34955 23.2311C1.31686 22.6992 0.592358 21.5026 0.319482 20.1247C0.174857 19.4976 0.0722947 18.7707 0.0027322 17.8643C-0.0357053 17.3526 0.34517 16.9048 0.855983 16.8591L2.35217 16.7318C3.00405 16.6778 3.51955 16.8224 4.17874 17.1548C4.14392 16.5304 4.17142 15.9051 4.2538 15.2889L3.68617 15.1342C1.1748 14.4762 0.485045 11.3128 1.78005 8.99924C2.11148 8.34281 2.54723 7.72299 2.96292 7.14624C3.29755 6.68274 3.9648 6.62637 4.37649 7.02262L5.46961 8.08374C5.94936 8.55893 6.32836 9.19699 6.57192 9.93312C6.91249 9.52024 7.28417 9.13843 7.68155 8.79512L7.31168 8.11124C6.73486 7.06299 6.6653 5.80318 7.12855 4.74574C7.94186 2.70774 9.81255 2.15287 11.9681 1.94512C12.5011 1.89649 12.9556 2.29193 12.9934 2.81393C12.9246 3.8343 13.5935 5.24487 12.3379 7.39524C11.7611 8.33274 11.1184 8.9388 10.3641 9.26843C7.18899 10.9303 5.81167 14.3539 6.07024 17.3306C6.37167 21.74 9.54443 24.4589 12.4752 24.7161C12.9916 24.7619 13.3724 25.2169 13.3267 25.7324C13.2791 26.2496 12.7756 26.6214 12.3104 26.5838C12.1694 26.571 12.0303 26.5554 11.8929 26.5353L11.7501 27.211C11.4097 28.8852 10.1002 30.0591 8.40118 30.0591Z" fill="#94B1DC"/>
<path d="M23.5825 30.0592C21.8508 30.0592 20.5604 28.8717 20.2207 27.2045L20.0797 26.5362C19.9424 26.5555 19.8032 26.5719 19.6641 26.5838C19.1898 26.625 18.6936 26.2497 18.6478 25.7324C18.6021 25.217 18.9829 24.762 19.4993 24.7162C23.0957 24.3988 25.6436 21.0808 25.9006 17.3489C26.1664 14.3235 24.851 10.9633 21.5427 9.23459C20.8542 8.93796 20.2115 8.3319 19.6457 7.41546C18.7458 5.86115 18.7861 4.77752 18.981 2.81402C19.0185 2.29777 19.4681 1.89483 20.0064 1.94521C20.8121 2.02302 21.4694 2.14114 22.0736 2.31783C23.2986 2.63096 24.3771 3.57483 24.8568 4.77327C25.3091 5.80321 25.2395 7.06302 24.6609 8.11771L24.2928 8.79521C24.6901 9.13946 25.06 9.52034 25.4006 9.93415C25.6441 9.19715 26.0214 8.55996 26.4993 8.08934C26.5011 8.08752 26.503 8.08565 26.5048 8.08384L27.5998 7.02271C28.0025 6.63127 28.6728 6.67646 29.0133 7.14815C29.4473 7.7524 29.8648 8.35021 30.2108 9.03502C30.8462 10.1666 31.011 11.6379 30.6228 12.839C30.2676 13.9825 29.3905 14.8458 28.2809 15.137L27.717 15.289C27.7993 15.9061 27.8268 16.5323 27.7938 17.1576C28.4585 16.8216 29.0606 16.6797 29.7033 16.731C29.707 16.7319 29.7088 16.7319 29.7106 16.7319L31.1443 16.8592C31.6551 16.904 32.0341 17.3508 31.9975 17.8617C31.9316 18.7515 31.8291 19.4785 31.6771 20.1495C31.4098 21.5027 30.6576 22.6993 29.5937 23.2477C28.6178 23.7997 27.3745 23.7164 26.3802 23.0096L25.9847 22.734C25.626 23.2633 25.259 23.6969 24.8605 24.0982C25.6093 24.381 26.2502 24.8462 26.7061 25.4449C26.708 25.4458 26.708 25.4477 26.7098 25.4495L27.6455 26.6909C27.9348 27.0745 27.8872 27.6156 27.5338 27.9424C26.9973 28.4395 26.4645 28.9193 25.8566 29.3157C25.1829 29.8029 24.3754 30.0592 23.5825 30.0592Z" fill="#94B1DC"/>
<path d="M22.5168 14.216C22.407 13.8763 22.1121 13.6291 21.7606 13.5778L18.3603 13.0835L16.8406 10.0045C16.6831 9.68408 16.3416 9.5239 16.0001 9.5239C15.6586 9.5239 15.3171 9.68408 15.1597 10.0045L13.64 13.0835L10.2397 13.5778C9.88815 13.6291 9.59334 13.8763 9.48346 14.216C9.37359 14.5547 9.46515 14.9273 9.72153 15.1763L12.1807 17.5741L11.5984 20.9597C11.538 21.3113 11.6827 21.6665 11.972 21.8761C12.2613 22.0876 12.644 22.1133 12.9589 21.9476L16.0001 20.35L19.0415 21.9476C19.3675 22.1193 19.7497 22.0796 20.0284 21.8761C20.3177 21.6665 20.4623 21.3113 20.402 20.9597L19.8197 17.5741L22.2788 15.1763C22.5351 14.9273 22.6266 14.5547 22.5168 14.216Z" fill="#94B1DC"/>
<path d="M20.0284 21.8761C20.3177 21.6665 20.4623 21.3113 20.4019 20.9597L19.8197 17.5741L22.2788 15.1763C22.5352 14.9273 22.6267 14.5547 22.5169 14.216C22.407 13.8763 22.1122 13.6291 21.7606 13.5778L18.3604 13.0835L16.8406 10.0045C16.6831 9.68408 16.3417 9.5239 16.0002 9.5239V20.35L19.0416 21.9476C19.3675 22.1193 19.7497 22.0796 20.0284 21.8761Z" fill="#94B1DC"/>
</svg>
